<?xml version="1.0" encoding="iso-8859-1"?>
<!-- Generator: Adobe Illustrator 16.0.0, SVG Export Plug-In . SVG Version: 6.00 Build 0)  -->
<!DOCTYPE svg PUBLIC "-//W3C//DTD SVG 1.1//EN" "http://www.w3.org/Graphics/SVG/1.1/DTD/svg11.dtd">
<svg version="1.1" id="Capa_1" xmlns="http://www.w3.org/2000/svg" xmlns:xlink="http://www.w3.org/1999/xlink" x="0px" y="0px"
	 width="94.183px" height="94.183px" viewBox="0 0 94.183 94.183" style="enable-background:new 0 0 94.183 94.183;"
	 xml:space="preserve">
<g>
	<g>
		<path d="M42.69,37.248c-3.14,0.318-10.203,10.341-5.521,18.689c4.681,8.35,13.372,2.672,13.372,2.672s10.162-4.715,14.149-4.075
			c-0.082-0.288-0.168-0.579-0.267-0.88c-0.188-0.585-0.377-1.188-0.541-1.82c-0.425-1.499-0.814-2.878-1.52-4.158
			c-0.287-0.568-0.503-1.03-0.719-1.499c-0.534-1.156-1.04-2.251-1.731-3.131l-1.827-2.693c-0.268-0.411-0.596-0.729-0.904-1.058
			c-0.308-0.321-0.615-0.643-0.903-0.982c-0.15-0.147-0.417-0.452-0.685-0.756c-0.164-0.185-0.342-0.356-0.506-0.534
			c0.15,1.492,0.308,2.964,0.027,4.223C53.859,46.278,45.997,36.936,42.69,37.248z"/>
		<path d="M12.281,73.434l5.351,4.011c0.511,0.41,1.199,0.76,1.917,1.133c0.547,0.28,1.108,0.575,1.671,0.906
			c1.377,0.764,2.622,1.462,4.016,1.862c0.604,0.198,1.083,0.373,1.567,0.551c1.198,0.438,2.327,0.853,3.434,0.985l3.196,0.616
			c0.479,0.103,0.931,0.096,1.388,0.106c0.445,0.01,0.89,0.023,1.334,0.062c0.301,0.007,0.616,0.023,1.027,0.048
			c0.411,0.023,0.819,0.051,1.241,0.051l0.381-0.01l3.01-0.267c1.193-0.038,2.293-0.291,3.47-0.559
			c0.712-0.164,1.429-0.325,2.134-0.448c0.608-0.198,1.22-0.383,1.822-0.567c1.213-0.363,2.356-0.709,3.362-1.16
			c1.499-0.603,3.288-1.349,4.89-2.229c1.242-0.588,2.197-1.177,3.118-1.728l1.17-0.695c-1.652-1.745-2.293-4.213-1.745-6.539
			c-1.608-0.109-3.699,0.167-6.297,1.026c-10.062,3.306-17.968,9.972-16.353,12.744c-3.34-0.517-6.5-1.578-9.378-3.124
			c1.471-1.698,3.929-4.292,7.563-7.197c6.283-5.03-7.549-10.058-15.92-12.573c-8.393-2.515-2.11-8.384,5.042-16.169
			c4.324-4.729,3.41-9.147,2.017-11.902c-1.593,0.236-3.265,0.007-4.674-0.801l-6.268-3.624C7.343,34.387,1.886,44.513,1.886,55.946
			c0,6.513,1.795,12.597,4.875,17.833C8.223,72.38,10.666,72.212,12.281,73.434z"/>
		<path d="M5.798,18.012l18.569,10.722c1.206,0.694,2.702,0.694,3.908,0c1.204-0.695,1.952-1.985,1.952-3.381v-3.75
			c1.211,0.202,2.565,0.455,4.036,0.78c1.515,0.4,3.196,0.743,4.882,1.352c1.738,0.507,3.491,1.194,5.298,1.968
			c1.841,0.708,3.554,1.763,5.406,2.69c1.631,1.184,3.578,2.128,5.081,3.556l2.402,2.012c0.78,0.698,1.417,1.509,2.128,2.259
			c0.661,0.787,1.465,1.475,2.02,2.323c0.564,0.846,1.126,1.681,1.68,2.499c1.242,1.584,1.917,3.415,2.741,5.068
			c0.907,1.636,1.38,3.337,1.824,4.911c0.411,1.581,1.026,2.994,1.164,4.332c0.194,1.338,0.359,2.502,0.496,3.46
			c0.28,1.934,0.444,3.042,0.444,3.042l0.021,0.138c0.069,0.479,0.479,0.852,0.979,0.852c0.544,0.007,0.995-0.438,0.995-0.989
			c0,0,0.011-1.156,0.024-3.183c0-1.022,0.014-2.262,0.014-3.686c0.062-1.434-0.353-3.011-0.541-4.773
			c-0.232-1.763-0.485-3.683-1.184-5.619c-0.623-1.958-1.109-4.121-2.211-6.116c-0.503-1.03-0.999-2.077-1.516-3.138
			c-0.504-1.071-1.256-1.988-1.903-3.011c-0.681-0.986-1.308-2.05-2.087-2.995l-2.43-2.762c-1.564-1.943-3.57-3.367-5.343-5.051
			c-1.947-1.396-3.82-2.937-5.811-4.079c-1.959-1.219-3.895-2.327-5.811-3.214c-1.869-0.996-3.735-1.687-5.435-2.416
			c-2.868-1.095-5.366-1.899-7.366-2.45V3.902c0-1.393-0.755-2.683-1.952-3.381c-1.207-0.695-2.702-0.695-3.908,0L5.798,11.246
			c-1.201,0.695-1.949,1.992-1.949,3.381C3.849,16.023,4.597,17.317,5.798,18.012z"/>
		<path d="M91.157,62.855c-0.985-0.989-2.43-1.379-3.771-1.017L66.667,67.39c-1.341,0.356-2.402,1.421-2.758,2.762
			c-0.369,1.342,0.021,2.782,1.006,3.771l2.656,2.652c-1,0.715-2.136,1.492-3.402,2.307c-1.355,0.78-2.792,1.731-4.407,2.491
			c-1.588,0.876-3.319,1.622-5.141,2.354c-1.81,0.801-3.759,1.26-5.725,1.92c-1.99,0.318-4.037,1.026-6.104,1.078l-3.129,0.277
			c-1.04,0.058-2.06-0.069-3.102-0.093c-1.02-0.089-2.074-0.004-3.073-0.216c-0.991-0.195-1.983-0.39-2.957-0.578
			c-1.999-0.24-3.765-1.058-5.523-1.643c-1.793-0.521-3.325-1.39-4.755-2.188c-1.408-0.828-2.849-1.393-3.886-2.241
			c-1.083-0.811-2.026-1.516-2.801-2.098c-1.559-1.17-2.462-1.834-2.462-1.834l-0.109-0.086c-0.382-0.291-0.939-0.267-1.294,0.093
			c-0.388,0.38-0.395,1.017-0.007,1.406c0,0,0.806,0.825,2.24,2.266c0.718,0.722,1.588,1.608,2.594,2.618
			c0.97,1.058,2.375,1.882,3.756,2.991c1.408,1.088,2.95,2.265,4.812,3.141c1.826,0.938,3.705,2.129,5.895,2.755
			c1.075,0.377,2.168,0.764,3.287,1.144c1.107,0.4,2.291,0.513,3.468,0.783c1.184,0.213,2.384,0.517,3.592,0.641l3.677,0.229
			c2.484,0.268,4.898-0.14,7.351-0.205c2.361-0.387,4.777-0.623,6.995-1.222c2.237-0.527,4.4-1.105,6.379-1.824
			c2.025-0.619,3.833-1.45,5.551-2.135c2.806-1.257,5.14-2.45,6.939-3.478l3.854,3.86c0.985,0.982,2.43,1.365,3.771,1.006
			s2.402-1.416,2.765-2.758l5.544-20.715C92.526,65.282,92.135,63.841,91.157,62.855z"/>
	</g>
</g>
<g>
</g>
<g>
</g>
<g>
</g>
<g>
</g>
<g>
</g>
<g>
</g>
<g>
</g>
<g>
</g>
<g>
</g>
<g>
</g>
<g>
</g>
<g>
</g>
<g>
</g>
<g>
</g>
<g>
</g>
</svg>
